<svg width="32" height="32" viewBox="0 0 32 32" fill="none" xmlns="http://www.w3.org/2000/svg">
<path d="M0 14.7497V0H14.7073V14.7497H0ZM3.26358 11.4437H11.4437V3.30596H3.26358V11.4437ZM0 32V17.2927H14.7073V32H0ZM3.26358 28.7364H11.4437V20.5563H3.26358V28.7364ZM17.2503 14.7497V0H32V14.7497H17.2503ZM20.5563 11.4437H28.694V3.30596H20.5563V11.4437ZM28.3126 32V28.355H32V32H28.3126ZM17.2503 20.9801V17.2927H20.9377V20.9801H17.2503ZM20.9377 24.6675V20.9801H24.6252V24.6675H20.9377ZM17.2503 28.355V24.6675H20.9377V28.355H17.2503ZM20.9377 32V28.355H24.6252V32H20.9377ZM24.6252 28.355V24.6675H28.3126V28.355H24.6252ZM24.6252 20.9801V17.2927H28.3126V20.9801H24.6252ZM28.3126 24.6675V20.9801H32V24.6675H28.3126Z" fill="#1F5ECA"/>
</svg>
